<svg xmlns="http://www.w3.org/2000/svg" width="16" height="16" viewBox="28 0 16 16"><g data-name="Social Icons – 16px / LinkedIn"><path d="M42.816 16H29.18c-.65 0-1.18-.518-1.18-1.155V1.154C28 .518 28.53 0 29.18 0h13.636C43.469 0 44 .518 44 1.154v13.691C44 15.482 43.47 16 42.816 16ZM34.236 6v7.635l2.369.001V9.857c0-.97.17-1.961 1.423-1.961 1.234 0 1.234 1.17 1.234 2.024v3.714h2.372V9.445c0-1.889-.345-3.637-2.847-3.637-1.175 0-1.944.664-2.245 1.233h-.033V5.999h-2.274Zm-3.866 0v7.635h2.375V6H30.37Zm1.19-3.797c-.76 0-1.378.618-1.378 1.376a1.378 1.378 0 1 0 1.378-1.376Z" fill="#f43319" fill-rule="evenodd" data-name="Icon"/></g></svg>