<svg xmlns="http://www.w3.org/2000/svg" width="16" height="16" viewBox="56 0 16 16"><g data-name="Social Icons – 16px / Twitter"><path d="M70 16H58c-1.103 0-2-.897-2-2V2c0-1.103.897-2 2-2h12c1.103 0 2 .897 2 2v12c0 1.103-.897 2-2 2Zm-10.995-4.852v.001a5.838 5.838 0 0 0 3.14.915c2.194 0 3.567-1.035 4.332-1.903.955-1.084 1.503-2.517 1.503-3.933 0-.087 0-.176-.004-.264A4.199 4.199 0 0 0 69 4.9a4.106 4.106 0 0 1-1.18.324 2.06 2.06 0 0 0 .904-1.136c-.4.238-.84.405-1.304.496a2.035 2.035 0 0 0-1.496-.648 2.054 2.054 0 0 0-2 2.52 5.837 5.837 0 0 1-4.228-2.144 2.06 2.06 0 0 0 .636 2.74 2.096 2.096 0 0 1-.928-.256v.028c0 .974.691 1.82 1.644 2.012a2.02 2.02 0 0 1-.924.036 2.048 2.048 0 0 0 1.916 1.424 4.093 4.093 0 0 1-2.548.88c-.174 0-.337-.01-.487-.028Z" fill="#f43319" fill-rule="evenodd" data-name="Icon"/></g></svg>